<mxfile host="app.diagrams.net" agent="Mozilla/5.0 (Windows NT 10.0; Win64; x64) AppleWebKit/537.36 (KHTML, like Gecko) Chrome/134.0.0.0 Safari/537.36" version="26.1.0">
  <diagram name="Page-1" id="8tKUuH6r_DbUgl4QRnLF">
    <mxGraphModel dx="2634" dy="755" grid="1" gridSize="10" guides="1" tooltips="1" connect="1" arrows="1" fold="1" page="1" pageScale="1" pageWidth="827" pageHeight="1169" math="0" shadow="0">
      <root>
        <mxCell id="0" />
        <mxCell id="1" parent="0" />
        <mxCell id="hovvvtxZ9Uof6yr2vE2c-200" value="Country" style="swimlane;childLayout=stackLayout;horizontal=1;startSize=50;horizontalStack=0;rounded=1;fontSize=14;fontStyle=0;strokeWidth=2;resizeParent=0;resizeLast=1;shadow=0;dashed=0;align=center;arcSize=4;whiteSpace=wrap;html=1;" vertex="1" parent="1">
          <mxGeometry x="90" y="540" width="160" height="90" as="geometry" />
        </mxCell>
        <mxCell id="hovvvtxZ9Uof6yr2vE2c-201" value="id&amp;nbsp; &amp;nbsp; &amp;nbsp; &amp;nbsp; &amp;nbsp; &amp;nbsp; &amp;nbsp; &amp;nbsp; &amp;nbsp; &amp;nbsp; &amp;nbsp; &amp;nbsp; &amp;nbsp; &amp;nbsp; &amp;nbsp; &amp;nbsp; &amp;nbsp;(PK)&lt;div&gt;Name&lt;/div&gt;&lt;div&gt;&lt;br&gt;&lt;/div&gt;" style="align=left;strokeColor=none;fillColor=none;spacingLeft=4;fontSize=12;verticalAlign=top;resizable=0;rotatable=0;part=1;html=1;" vertex="1" parent="hovvvtxZ9Uof6yr2vE2c-200">
          <mxGeometry y="50" width="160" height="40" as="geometry" />
        </mxCell>
        <mxCell id="hovvvtxZ9Uof6yr2vE2c-202" value="League" style="swimlane;childLayout=stackLayout;horizontal=1;startSize=50;horizontalStack=0;rounded=1;fontSize=14;fontStyle=0;strokeWidth=2;resizeParent=0;resizeLast=1;shadow=0;dashed=0;align=center;arcSize=4;whiteSpace=wrap;html=1;" vertex="1" parent="1">
          <mxGeometry x="370" y="525" width="160" height="120" as="geometry" />
        </mxCell>
        <mxCell id="hovvvtxZ9Uof6yr2vE2c-203" value="id&amp;nbsp; &amp;nbsp; &amp;nbsp; &amp;nbsp; &amp;nbsp; &amp;nbsp; &amp;nbsp; &amp;nbsp; &amp;nbsp; &amp;nbsp; &amp;nbsp; &amp;nbsp; &amp;nbsp; &amp;nbsp; &amp;nbsp; &amp;nbsp; &amp;nbsp;(PK)&lt;div&gt;country_id&lt;br&gt;Name&lt;/div&gt;" style="align=left;strokeColor=none;fillColor=none;spacingLeft=4;fontSize=12;verticalAlign=top;resizable=0;rotatable=0;part=1;html=1;" vertex="1" parent="hovvvtxZ9Uof6yr2vE2c-202">
          <mxGeometry y="50" width="160" height="70" as="geometry" />
        </mxCell>
        <mxCell id="hovvvtxZ9Uof6yr2vE2c-204" value="Team" style="swimlane;childLayout=stackLayout;horizontal=1;startSize=50;horizontalStack=0;rounded=1;fontSize=14;fontStyle=0;strokeWidth=2;resizeParent=0;resizeLast=1;shadow=0;dashed=0;align=center;arcSize=4;whiteSpace=wrap;html=1;" vertex="1" parent="1">
          <mxGeometry x="270" y="150" width="160" height="150" as="geometry" />
        </mxCell>
        <mxCell id="hovvvtxZ9Uof6yr2vE2c-205" value="&lt;div&gt;&lt;span style=&quot;background-color: transparent; color: light-dark(rgb(0, 0, 0), rgb(255, 255, 255));&quot;&gt;id&lt;/span&gt;&lt;span style=&quot;background-color: transparent; color: light-dark(rgb(0, 0, 0), rgb(255, 255, 255));&quot;&gt;&amp;nbsp; &amp;nbsp; &amp;nbsp; &amp;nbsp; &amp;nbsp; &amp;nbsp; &amp;nbsp; &amp;nbsp; &amp;nbsp; &amp;nbsp; &amp;nbsp; &amp;nbsp; &amp;nbsp; &amp;nbsp; &amp;nbsp; &amp;nbsp; &amp;nbsp;(PK)&lt;/span&gt;&lt;/div&gt;&lt;div&gt;&lt;span style=&quot;background-color: transparent; color: light-dark(rgb(0, 0, 0), rgb(255, 255, 255));&quot;&gt;team_api_id&lt;/span&gt;&lt;/div&gt;&lt;div&gt;team_fifa_api_id&lt;/div&gt;&lt;div&gt;team_long_name&lt;/div&gt;&lt;div&gt;&lt;span style=&quot;background-color: transparent; color: light-dark(rgb(0, 0, 0), rgb(255, 255, 255));&quot;&gt;team_short_name&lt;/span&gt;&lt;/div&gt;" style="align=left;strokeColor=none;fillColor=none;spacingLeft=4;fontSize=12;verticalAlign=top;resizable=0;rotatable=0;part=1;html=1;" vertex="1" parent="hovvvtxZ9Uof6yr2vE2c-204">
          <mxGeometry y="50" width="160" height="100" as="geometry" />
        </mxCell>
        <mxCell id="hovvvtxZ9Uof6yr2vE2c-206" style="edgeStyle=orthogonalEdgeStyle;rounded=0;orthogonalLoop=1;jettySize=auto;html=1;exitX=0.5;exitY=1;exitDx=0;exitDy=0;" edge="1" parent="hovvvtxZ9Uof6yr2vE2c-204" source="hovvvtxZ9Uof6yr2vE2c-205" target="hovvvtxZ9Uof6yr2vE2c-205">
          <mxGeometry relative="1" as="geometry" />
        </mxCell>
        <mxCell id="hovvvtxZ9Uof6yr2vE2c-207" value="Player" style="swimlane;childLayout=stackLayout;horizontal=1;startSize=50;horizontalStack=0;rounded=1;fontSize=14;fontStyle=0;strokeWidth=2;resizeParent=0;resizeLast=1;shadow=0;dashed=0;align=center;arcSize=4;whiteSpace=wrap;html=1;" vertex="1" parent="1">
          <mxGeometry x="940" y="260" width="160" height="170" as="geometry" />
        </mxCell>
        <mxCell id="hovvvtxZ9Uof6yr2vE2c-231" value="" style="edgeStyle=entityRelationEdgeStyle;fontSize=12;html=1;endArrow=ERoneToMany;startArrow=ERzeroToOne;rounded=0;strokeColor=default;align=center;verticalAlign=middle;fontFamily=Helvetica;fontColor=default;labelBackgroundColor=default;exitX=1;exitY=0.5;exitDx=0;exitDy=0;entryX=1;entryY=0.25;entryDx=0;entryDy=0;" edge="1" parent="hovvvtxZ9Uof6yr2vE2c-207" target="hovvvtxZ9Uof6yr2vE2c-217">
          <mxGeometry width="100" height="100" relative="1" as="geometry">
            <mxPoint x="160" y="80" as="sourcePoint" />
            <mxPoint x="70" y="310" as="targetPoint" />
            <Array as="points">
              <mxPoint x="180" y="270" />
              <mxPoint x="180" y="270" />
              <mxPoint x="90" y="310" />
            </Array>
          </mxGeometry>
        </mxCell>
        <mxCell id="hovvvtxZ9Uof6yr2vE2c-248" value="has" style="edgeLabel;html=1;align=center;verticalAlign=middle;resizable=0;points=[];fontFamily=Helvetica;fontSize=11;fontColor=default;labelBackgroundColor=default;" vertex="1" connectable="0" parent="hovvvtxZ9Uof6yr2vE2c-231">
          <mxGeometry x="-0.0411" y="-2" relative="1" as="geometry">
            <mxPoint as="offset" />
          </mxGeometry>
        </mxCell>
        <mxCell id="hovvvtxZ9Uof6yr2vE2c-208" value="&lt;div&gt;&lt;div&gt;&lt;span style=&quot;background-color: transparent; color: light-dark(rgb(0, 0, 0), rgb(255, 255, 255));&quot;&gt;id&amp;nbsp;&lt;/span&gt;&lt;span style=&quot;background-color: transparent; color: light-dark(rgb(0, 0, 0), rgb(255, 255, 255));&quot;&gt;&amp;nbsp; &amp;nbsp; &amp;nbsp; &amp;nbsp; &amp;nbsp; &amp;nbsp; &amp;nbsp; &amp;nbsp; &amp;nbsp; &amp;nbsp; &amp;nbsp; &amp;nbsp; &amp;nbsp; &amp;nbsp; &amp;nbsp; &amp;nbsp; &amp;nbsp;(PK)&lt;/span&gt;&lt;/div&gt;&lt;div&gt;player_api_id&lt;/div&gt;&lt;div&gt;player_name&lt;/div&gt;&lt;div&gt;player_fifa_api_id&lt;/div&gt;&lt;div&gt;birthday&lt;/div&gt;&lt;div&gt;height&lt;/div&gt;&lt;div&gt;weight&lt;/div&gt;&lt;/div&gt;" style="align=left;strokeColor=none;fillColor=none;spacingLeft=4;fontSize=12;verticalAlign=top;resizable=0;rotatable=0;part=1;html=1;" vertex="1" parent="hovvvtxZ9Uof6yr2vE2c-207">
          <mxGeometry y="50" width="160" height="120" as="geometry" />
        </mxCell>
        <mxCell id="hovvvtxZ9Uof6yr2vE2c-209" style="edgeStyle=orthogonalEdgeStyle;rounded=0;orthogonalLoop=1;jettySize=auto;html=1;exitX=0.5;exitY=1;exitDx=0;exitDy=0;" edge="1" parent="hovvvtxZ9Uof6yr2vE2c-207" source="hovvvtxZ9Uof6yr2vE2c-208" target="hovvvtxZ9Uof6yr2vE2c-208">
          <mxGeometry relative="1" as="geometry" />
        </mxCell>
        <mxCell id="hovvvtxZ9Uof6yr2vE2c-210" value="&lt;span style=&quot;font-size: 12px; text-align: left; text-wrap-mode: nowrap;&quot;&gt;Match&lt;/span&gt;" style="swimlane;childLayout=stackLayout;horizontal=1;startSize=50;horizontalStack=0;rounded=1;fontSize=14;fontStyle=0;strokeWidth=2;resizeParent=0;resizeLast=1;shadow=0;dashed=0;align=center;arcSize=4;whiteSpace=wrap;html=1;" vertex="1" parent="1">
          <mxGeometry x="600" y="60" width="160" height="330" as="geometry" />
        </mxCell>
        <mxCell id="hovvvtxZ9Uof6yr2vE2c-211" value="&lt;div&gt;&lt;div&gt;&lt;div&gt;&lt;span style=&quot;background-color: transparent; color: light-dark(rgb(0, 0, 0), rgb(255, 255, 255));&quot;&gt;id&amp;nbsp;&lt;/span&gt;&lt;span style=&quot;background-color: transparent; color: light-dark(rgb(0, 0, 0), rgb(255, 255, 255));&quot;&gt;&amp;nbsp; &amp;nbsp; &amp;nbsp; &amp;nbsp; &amp;nbsp; &amp;nbsp; &amp;nbsp; &amp;nbsp; &amp;nbsp; &amp;nbsp; &amp;nbsp; &amp;nbsp; &amp;nbsp; &amp;nbsp; &amp;nbsp; &amp;nbsp; &amp;nbsp;(PK)&lt;/span&gt;&lt;/div&gt;&lt;div&gt;country_id&lt;/div&gt;&lt;div&gt;league_id&lt;/div&gt;&lt;div&gt;season&lt;/div&gt;&lt;div&gt;stage&lt;/div&gt;&lt;div&gt;date&lt;/div&gt;&lt;div&gt;match_api_id&lt;/div&gt;&lt;div&gt;home_team_api_id&lt;/div&gt;&lt;div&gt;away_team_api_id&lt;/div&gt;&lt;div&gt;home_team_goal&lt;/div&gt;&lt;div&gt;away_team_goal&lt;/div&gt;&lt;div&gt;home_player_X1...11&lt;/div&gt;&lt;div&gt;away_player_X1...11&lt;/div&gt;&lt;div&gt;home_player_Y1...11&lt;/div&gt;&lt;div&gt;away_player_Y1...11&lt;br&gt;home_player_1..11&lt;/div&gt;&lt;div&gt;away_player_1...11&lt;/div&gt;&lt;div&gt;other attributes...&lt;/div&gt;&lt;/div&gt;&lt;/div&gt;" style="align=left;strokeColor=none;fillColor=none;spacingLeft=4;fontSize=12;verticalAlign=top;resizable=0;rotatable=0;part=1;html=1;" vertex="1" parent="hovvvtxZ9Uof6yr2vE2c-210">
          <mxGeometry y="50" width="160" height="280" as="geometry" />
        </mxCell>
        <mxCell id="hovvvtxZ9Uof6yr2vE2c-212" style="edgeStyle=orthogonalEdgeStyle;rounded=0;orthogonalLoop=1;jettySize=auto;html=1;exitX=0.5;exitY=1;exitDx=0;exitDy=0;" edge="1" parent="hovvvtxZ9Uof6yr2vE2c-210" source="hovvvtxZ9Uof6yr2vE2c-211" target="hovvvtxZ9Uof6yr2vE2c-211">
          <mxGeometry relative="1" as="geometry" />
        </mxCell>
        <mxCell id="hovvvtxZ9Uof6yr2vE2c-213" value="&lt;span style=&quot;font-size: 12px; text-align: left; text-wrap-mode: nowrap;&quot;&gt;Team_Attributes&lt;/span&gt;" style="swimlane;childLayout=stackLayout;horizontal=1;startSize=50;horizontalStack=0;rounded=1;fontSize=14;fontStyle=0;strokeWidth=2;resizeParent=0;resizeLast=1;shadow=0;dashed=0;align=center;arcSize=4;whiteSpace=wrap;html=1;" vertex="1" parent="1">
          <mxGeometry x="-121" y="150" width="160" height="220" as="geometry" />
        </mxCell>
        <mxCell id="hovvvtxZ9Uof6yr2vE2c-214" value="&lt;div&gt;&lt;div&gt;&lt;div&gt;&lt;div&gt;&lt;span style=&quot;background-color: transparent; color: light-dark(rgb(0, 0, 0), rgb(255, 255, 255));&quot;&gt;id&lt;/span&gt;&lt;span style=&quot;background-color: transparent; color: light-dark(rgb(0, 0, 0), rgb(255, 255, 255));&quot;&gt;&amp;nbsp; &amp;nbsp; &amp;nbsp; &amp;nbsp; &amp;nbsp; &amp;nbsp; &amp;nbsp; &amp;nbsp; &amp;nbsp; &amp;nbsp; &amp;nbsp; &amp;nbsp; &amp;nbsp; &amp;nbsp; &amp;nbsp; &amp;nbsp; &amp;nbsp;(PK)&lt;/span&gt;&lt;/div&gt;&lt;div&gt;team_fifa_api_id&lt;/div&gt;&lt;div&gt;team_api_id&lt;/div&gt;&lt;div&gt;date&lt;/div&gt;&lt;div&gt;other attributes...&lt;/div&gt;&lt;/div&gt;&lt;/div&gt;&lt;/div&gt;" style="align=left;strokeColor=none;fillColor=none;spacingLeft=4;fontSize=12;verticalAlign=top;resizable=0;rotatable=0;part=1;html=1;" vertex="1" parent="hovvvtxZ9Uof6yr2vE2c-213">
          <mxGeometry y="50" width="160" height="170" as="geometry" />
        </mxCell>
        <mxCell id="hovvvtxZ9Uof6yr2vE2c-215" style="edgeStyle=orthogonalEdgeStyle;rounded=0;orthogonalLoop=1;jettySize=auto;html=1;exitX=0.5;exitY=1;exitDx=0;exitDy=0;" edge="1" parent="hovvvtxZ9Uof6yr2vE2c-213" source="hovvvtxZ9Uof6yr2vE2c-214" target="hovvvtxZ9Uof6yr2vE2c-214">
          <mxGeometry relative="1" as="geometry" />
        </mxCell>
        <mxCell id="hovvvtxZ9Uof6yr2vE2c-222" style="edgeStyle=orthogonalEdgeStyle;rounded=0;orthogonalLoop=1;jettySize=auto;html=1;exitX=0.5;exitY=1;exitDx=0;exitDy=0;" edge="1" parent="hovvvtxZ9Uof6yr2vE2c-213" source="hovvvtxZ9Uof6yr2vE2c-214" target="hovvvtxZ9Uof6yr2vE2c-214">
          <mxGeometry relative="1" as="geometry" />
        </mxCell>
        <mxCell id="hovvvtxZ9Uof6yr2vE2c-216" value="&lt;span style=&quot;font-size: 12px; text-align: left; text-wrap-mode: nowrap;&quot;&gt;Player_Attributes&lt;/span&gt;" style="swimlane;childLayout=stackLayout;horizontal=1;startSize=50;horizontalStack=0;rounded=1;fontSize=14;fontStyle=0;strokeWidth=2;resizeParent=0;resizeLast=1;shadow=0;dashed=0;align=center;arcSize=4;whiteSpace=wrap;html=1;" vertex="1" parent="1">
          <mxGeometry x="940" y="540" width="160" height="220" as="geometry" />
        </mxCell>
        <mxCell id="hovvvtxZ9Uof6yr2vE2c-217" value="&lt;div&gt;&lt;div&gt;&lt;div&gt;&lt;div&gt;&lt;div&gt;&lt;span style=&quot;background-color: transparent; color: light-dark(rgb(0, 0, 0), rgb(255, 255, 255));&quot;&gt;id&lt;/span&gt;&lt;span style=&quot;background-color: transparent; color: light-dark(rgb(0, 0, 0), rgb(255, 255, 255));&quot;&gt;&amp;nbsp; &amp;nbsp; &amp;nbsp; &amp;nbsp; &amp;nbsp; &amp;nbsp; &amp;nbsp; &amp;nbsp; &amp;nbsp; &amp;nbsp; &amp;nbsp; &amp;nbsp; &amp;nbsp; &amp;nbsp; &amp;nbsp; &amp;nbsp; &amp;nbsp;(PK)&lt;/span&gt;&lt;/div&gt;&lt;div&gt;player_fifa_api_id&lt;/div&gt;&lt;div&gt;player_api_id&lt;/div&gt;&lt;div&gt;date&lt;/div&gt;&lt;div&gt;other attributes...&lt;/div&gt;&lt;/div&gt;&lt;/div&gt;&lt;/div&gt;&lt;/div&gt;" style="align=left;strokeColor=none;fillColor=none;spacingLeft=4;fontSize=12;verticalAlign=top;resizable=0;rotatable=0;part=1;html=1;" vertex="1" parent="hovvvtxZ9Uof6yr2vE2c-216">
          <mxGeometry y="50" width="160" height="170" as="geometry" />
        </mxCell>
        <mxCell id="hovvvtxZ9Uof6yr2vE2c-218" style="edgeStyle=orthogonalEdgeStyle;rounded=0;orthogonalLoop=1;jettySize=auto;html=1;exitX=0.5;exitY=1;exitDx=0;exitDy=0;" edge="1" parent="hovvvtxZ9Uof6yr2vE2c-216" source="hovvvtxZ9Uof6yr2vE2c-217" target="hovvvtxZ9Uof6yr2vE2c-217">
          <mxGeometry relative="1" as="geometry" />
        </mxCell>
        <mxCell id="hovvvtxZ9Uof6yr2vE2c-223" style="edgeStyle=orthogonalEdgeStyle;rounded=0;orthogonalLoop=1;jettySize=auto;html=1;exitX=0.5;exitY=1;exitDx=0;exitDy=0;" edge="1" parent="hovvvtxZ9Uof6yr2vE2c-216" source="hovvvtxZ9Uof6yr2vE2c-217" target="hovvvtxZ9Uof6yr2vE2c-217">
          <mxGeometry relative="1" as="geometry" />
        </mxCell>
        <mxCell id="hovvvtxZ9Uof6yr2vE2c-232" value="" style="edgeStyle=entityRelationEdgeStyle;fontSize=12;html=1;endArrow=ERoneToMany;startArrow=ERzeroToOne;rounded=0;strokeColor=default;align=center;verticalAlign=middle;fontFamily=Helvetica;fontColor=default;labelBackgroundColor=default;exitX=0;exitY=0.25;exitDx=0;exitDy=0;entryX=1.011;entryY=0.826;entryDx=0;entryDy=0;entryPerimeter=0;" edge="1" parent="1" source="hovvvtxZ9Uof6yr2vE2c-208" target="hovvvtxZ9Uof6yr2vE2c-211">
          <mxGeometry width="100" height="100" relative="1" as="geometry">
            <mxPoint x="800" y="395" as="sourcePoint" />
            <mxPoint x="900" y="295" as="targetPoint" />
          </mxGeometry>
        </mxCell>
        <mxCell id="hovvvtxZ9Uof6yr2vE2c-249" value="plays" style="edgeLabel;html=1;align=center;verticalAlign=middle;resizable=0;points=[];fontFamily=Helvetica;fontSize=11;fontColor=default;labelBackgroundColor=default;" vertex="1" connectable="0" parent="hovvvtxZ9Uof6yr2vE2c-232">
          <mxGeometry x="0.1422" y="2" relative="1" as="geometry">
            <mxPoint as="offset" />
          </mxGeometry>
        </mxCell>
        <mxCell id="hovvvtxZ9Uof6yr2vE2c-233" value="" style="edgeStyle=entityRelationEdgeStyle;fontSize=12;html=1;endArrow=ERoneToMany;startArrow=ERzeroToOne;rounded=0;strokeColor=default;align=center;verticalAlign=middle;fontFamily=Helvetica;fontColor=default;labelBackgroundColor=default;entryX=0;entryY=0.5;entryDx=0;entryDy=0;exitX=1;exitY=0.25;exitDx=0;exitDy=0;" edge="1" parent="1" source="hovvvtxZ9Uof6yr2vE2c-205" target="hovvvtxZ9Uof6yr2vE2c-210">
          <mxGeometry width="100" height="100" relative="1" as="geometry">
            <mxPoint x="430" y="220" as="sourcePoint" />
            <mxPoint x="550" y="200" as="targetPoint" />
          </mxGeometry>
        </mxCell>
        <mxCell id="hovvvtxZ9Uof6yr2vE2c-250" value="plays in" style="edgeLabel;html=1;align=center;verticalAlign=middle;resizable=0;points=[];fontFamily=Helvetica;fontSize=11;fontColor=default;labelBackgroundColor=default;" vertex="1" connectable="0" parent="hovvvtxZ9Uof6yr2vE2c-233">
          <mxGeometry x="-0.2286" y="-1" relative="1" as="geometry">
            <mxPoint as="offset" />
          </mxGeometry>
        </mxCell>
        <mxCell id="hovvvtxZ9Uof6yr2vE2c-238" value="" style="edgeStyle=entityRelationEdgeStyle;fontSize=12;html=1;endArrow=ERoneToMany;startArrow=ERzeroToOne;rounded=0;strokeColor=default;align=center;verticalAlign=middle;fontFamily=Helvetica;fontColor=default;labelBackgroundColor=default;exitX=0;exitY=0.25;exitDx=0;exitDy=0;entryX=1.022;entryY=0.146;entryDx=0;entryDy=0;entryPerimeter=0;" edge="1" parent="1" source="hovvvtxZ9Uof6yr2vE2c-205" target="hovvvtxZ9Uof6yr2vE2c-214">
          <mxGeometry width="100" height="100" relative="1" as="geometry">
            <mxPoint x="240" y="420" as="sourcePoint" />
            <mxPoint x="340" y="320" as="targetPoint" />
          </mxGeometry>
        </mxCell>
        <mxCell id="hovvvtxZ9Uof6yr2vE2c-251" value="has" style="edgeLabel;html=1;align=center;verticalAlign=middle;resizable=0;points=[];fontFamily=Helvetica;fontSize=11;fontColor=default;labelBackgroundColor=default;" vertex="1" connectable="0" parent="hovvvtxZ9Uof6yr2vE2c-238">
          <mxGeometry x="0.1468" y="1" relative="1" as="geometry">
            <mxPoint as="offset" />
          </mxGeometry>
        </mxCell>
        <mxCell id="hovvvtxZ9Uof6yr2vE2c-240" value="" style="edgeStyle=entityRelationEdgeStyle;fontSize=12;html=1;endArrow=ERoneToMany;startArrow=ERzeroToOne;rounded=0;strokeColor=default;align=center;verticalAlign=middle;fontFamily=Helvetica;fontColor=default;labelBackgroundColor=default;exitX=1;exitY=0.25;exitDx=0;exitDy=0;entryX=-0.019;entryY=0.379;entryDx=0;entryDy=0;entryPerimeter=0;" edge="1" parent="1" source="hovvvtxZ9Uof6yr2vE2c-201" target="hovvvtxZ9Uof6yr2vE2c-203">
          <mxGeometry width="100" height="100" relative="1" as="geometry">
            <mxPoint x="-80" y="590" as="sourcePoint" />
            <mxPoint x="20" y="490" as="targetPoint" />
          </mxGeometry>
        </mxCell>
        <mxCell id="hovvvtxZ9Uof6yr2vE2c-245" value="has" style="edgeLabel;html=1;align=center;verticalAlign=middle;resizable=0;points=[];fontFamily=Helvetica;fontSize=11;fontColor=default;labelBackgroundColor=default;" vertex="1" connectable="0" parent="hovvvtxZ9Uof6yr2vE2c-240">
          <mxGeometry x="0.0766" y="-2" relative="1" as="geometry">
            <mxPoint as="offset" />
          </mxGeometry>
        </mxCell>
        <mxCell id="hovvvtxZ9Uof6yr2vE2c-242" value="" style="edgeStyle=entityRelationEdgeStyle;fontSize=12;html=1;endArrow=ERoneToMany;startArrow=ERzeroToOne;rounded=0;strokeColor=default;align=center;verticalAlign=middle;fontFamily=Helvetica;fontColor=default;labelBackgroundColor=default;exitX=1.006;exitY=0.141;exitDx=0;exitDy=0;exitPerimeter=0;entryX=-0.018;entryY=0.149;entryDx=0;entryDy=0;entryPerimeter=0;" edge="1" parent="1" source="hovvvtxZ9Uof6yr2vE2c-203" target="hovvvtxZ9Uof6yr2vE2c-211">
          <mxGeometry width="100" height="100" relative="1" as="geometry">
            <mxPoint x="240" y="420" as="sourcePoint" />
            <mxPoint x="340" y="320" as="targetPoint" />
          </mxGeometry>
        </mxCell>
        <mxCell id="hovvvtxZ9Uof6yr2vE2c-247" value="Text" style="edgeLabel;html=1;align=center;verticalAlign=middle;resizable=0;points=[];fontFamily=Helvetica;fontSize=11;fontColor=default;labelBackgroundColor=default;" vertex="1" connectable="0" parent="hovvvtxZ9Uof6yr2vE2c-242">
          <mxGeometry x="-0.2379" y="-3" relative="1" as="geometry">
            <mxPoint as="offset" />
          </mxGeometry>
        </mxCell>
        <mxCell id="hovvvtxZ9Uof6yr2vE2c-244" value="" style="edgeStyle=entityRelationEdgeStyle;fontSize=12;html=1;endArrow=ERoneToMany;startArrow=ERzeroToMany;rounded=0;strokeColor=default;align=center;verticalAlign=middle;fontFamily=Helvetica;fontColor=default;labelBackgroundColor=default;exitX=1;exitY=0;exitDx=0;exitDy=0;entryX=-0.014;entryY=0.11;entryDx=0;entryDy=0;entryPerimeter=0;" edge="1" parent="1" source="hovvvtxZ9Uof6yr2vE2c-201" target="hovvvtxZ9Uof6yr2vE2c-211">
          <mxGeometry width="100" height="100" relative="1" as="geometry">
            <mxPoint x="200" y="410" as="sourcePoint" />
            <mxPoint x="300" y="310" as="targetPoint" />
          </mxGeometry>
        </mxCell>
        <mxCell id="hovvvtxZ9Uof6yr2vE2c-246" value="hosts" style="edgeLabel;html=1;align=center;verticalAlign=middle;resizable=0;points=[];fontFamily=Helvetica;fontSize=11;fontColor=default;labelBackgroundColor=default;" vertex="1" connectable="0" parent="hovvvtxZ9Uof6yr2vE2c-244">
          <mxGeometry x="-0.4049" y="4" relative="1" as="geometry">
            <mxPoint y="-1" as="offset" />
          </mxGeometry>
        </mxCell>
      </root>
    </mxGraphModel>
  </diagram>
</mxfile>
